<svg id="Layer_1" data-name="Layer 1" xmlns="http://www.w3.org/2000/svg" viewBox="0 0 122.88 61.03"><defs><style>.cls-1{fill-rule:evenodd;}</style></defs><title>team</title><path class="cls-1" d="M12.07,35.86l2.28-.06,1.07,0,1.64,1.9c.38.44.78.89,1.21,1.32a26,26,0,0,1-2.88,2.64c-.54.45-1,.88-1.44,1.23C10.4,44.26,4,46.52,2.13,50.07.32,53.45.62,57.5,0,61H21.16a4.93,4.93,0,0,1,0-.55,27.36,27.36,0,0,1,2.4-9.57,18.55,18.55,0,0,1,2.88-4.33c-4.18,1.19-9.57-.53-10.46-3.82a25.66,25.66,0,0,0,3.2-2.94c.25.2.5.39.77.57a6.92,6.92,0,0,0,4.17,1.15,7,7,0,0,0,4.35-1.17l0,0A22.25,22.25,0,0,0,31,42.71l-.1.24.49-.28a8.45,8.45,0,0,1,1-.49L32.22,42a27.14,27.14,0,0,1-2.63-2.47,18.38,18.38,0,0,0,1.95-2.1l1-1.24.2-.24c.06-.07.13-.14.19-.22h2.25c3.31-7.08,1.21-17.6-5.56-22.06-2.09-1.38-3.58-1.32-6-1.32-2.8,0-4.22.09-6.61,1.67-3.53,2.33-5.69,6.36-6.6,12-.19,2.79-.31,7.61,1.64,9.86ZM47.54,22a2.93,2.93,0,0,0-1.51.4,1.24,1.24,0,0,0-.44.5,1.79,1.79,0,0,0-.14.8,7.27,7.27,0,0,0,1.43,3.48v0h0l3,4.76a25.29,25.29,0,0,0,4,5.29,8.22,8.22,0,0,0,5.74,2.32,8.5,8.5,0,0,0,6.08-2.42,26.45,26.45,0,0,0,4.15-5.65L73.26,26A5.32,5.32,0,0,0,74,23c-.08-.33-.45-.5-1.08-.53h-.41l-.48,0a1.18,1.18,0,0,1-.26,0,5.74,5.74,0,0,1-.92-.05L72,17.33c-8.58,1.35-15-5-24.06-1.27l.65,6a4.94,4.94,0,0,1-1-.05Zm4,21.27a.7.7,0,0,1-.21.21c.59,4.68,1.65,12,2.82,17.51H25.73c.48-5.73,2.13-11.17,7.9-14.38,3.24-1.81,12.94-2.42,16.73-4.82a29,29,0,0,0,1.53-4l0-.12a31.2,31.2,0,0,1-3.47-4.8l-3-4.76a8.61,8.61,0,0,1-1.7-4.35,3.43,3.43,0,0,1,.29-1.56,3,3,0,0,1,1-1.2,3.84,3.84,0,0,1,.73-.37,75.86,75.86,0,0,1-.14-8.56A10.88,10.88,0,0,1,46,10.16c1.1-3.92,4.46-6.75,8.31-8.08,1.87-.64,1.15-2.18,3-2.08,4.48.25,11.38,3.13,14,6.19C75.12,10.47,74.16,15.74,74,21h0a2.17,2.17,0,0,1,1.58,1.63c.24.95,0,2.28-.82,4.1h0l0,.1-3.42,5.63a27.89,27.89,0,0,1-4.43,6l-.09.08.55.8c.58.86,1.25,1.83,1.87,2.6,3.87,2.33,13.41,3,16.61,4.74,5.27,2.93,6.87,8.6,7.5,14.38H65.85a141.65,141.65,0,0,0,2.48-17.46,32.6,32.6,0,0,1-2.42-3.27l-.49-.7a9.92,9.92,0,0,1-5.76,1.7A9.7,9.7,0,0,1,53.35,39a19.18,19.18,0,0,1-1.84,4.28Zm2.05,3.86a3.71,3.71,0,0,1,0-5.43,16,16,0,0,1,5.23,2.41A2.45,2.45,0,0,1,59.93,44c1.66-1.18,3.79-1.66,5.64-2.54,2.21,2.15,2,4.13-.2,6a15.1,15.1,0,0,1-3.48-1.27,3.36,3.36,0,0,1-.24.93l1.68,14H56.59l1.68-14a2.8,2.8,0,0,1-.47-1.53,14.39,14.39,0,0,1-4.24,1.63Zm41.19,2.25c4,2,9.34,1,11.31-2.53a11.14,11.14,0,0,1-1.57-2.08l-.28-.41A8.07,8.07,0,0,1,99,46.17,7.93,7.93,0,0,1,93.48,44c-.09-.07-.17-.16-.26-.24-.2.58-.47,1.27-.75,1.9L92.3,46c-.26-.28-.53-.56-.81-.83.36-.83.69-1.74.9-2.36A28.53,28.53,0,0,1,90,39.43L87.6,35.59a6.89,6.89,0,0,1-1.36-3.49,2.7,2.7,0,0,1,.23-1.26,2.39,2.39,0,0,1,.83-1,2.65,2.65,0,0,1,.58-.3,60.52,60.52,0,0,1-.11-6.89,8.92,8.92,0,0,1,.3-1.56A9.23,9.23,0,0,1,92.14,16a12.74,12.74,0,0,1,3.41-1.52c.76-.22-.11-1.94.68-2,3.82-.39,9.46,2.38,12.13,5.26a9.35,9.35,0,0,1,2.36,5.91l-.15,6.25h0a1.73,1.73,0,0,1,1.27,1.32,5.38,5.38,0,0,1-.66,3.28h0l0,.08L108.39,39A23.31,23.31,0,0,1,105,43.68l.35.52a16.5,16.5,0,0,0,1.8,2.31s0,0,.06.07h0c3.17,2.23,7.81,2.77,10.76,4.42a8.14,8.14,0,0,1,2.58,2.18,16.1,16.1,0,0,1,2.3,7.85h-25a4.15,4.15,0,0,0,0-.49,31.64,31.64,0,0,0-2.38-9.64c-.23-.51-.48-1-.74-1.48ZM89.27,30.69a2.51,2.51,0,0,0-1.22.32.87.87,0,0,0-.34.4,1.33,1.33,0,0,0-.12.65,5.66,5.66,0,0,0,1.15,2.79v0h0l2.41,3.83A20.12,20.12,0,0,0,94.4,43,6.58,6.58,0,0,0,99,44.81a6.77,6.77,0,0,0,4.89-1.94,21.21,21.21,0,0,0,3.33-4.54l2.71-4.47a4.36,4.36,0,0,0,.58-2.38c-.07-.27-.37-.4-.87-.43h-.33l-.39,0h-.21a4.65,4.65,0,0,1-.74,0l.93-4.12c-6.9,1.09-12-4-19.34-1l.52,4.85a4.33,4.33,0,0,1-.82,0Zm-73,4.13C14.4,28.38,15,22.5,20.07,17.44a11.88,11.88,0,0,0,6.35,7.08,33.29,33.29,0,0,1,4.77,4.38c.27-1.12-.77-2.48-2-3.89a6.14,6.14,0,0,1,3,2.93,8.17,8.17,0,0,1,.58,5.27,10,10,0,0,1-.48,1.49.65.65,0,0,0-.25.17l-.4.49s-.08.08-.22.25l-1,1.24a11.37,11.37,0,0,1-2.46,2.39,6.35,6.35,0,0,1-3.75,1.09,6.16,6.16,0,0,1-3.54-1,10.35,10.35,0,0,1-2.21-2.12L16.52,35a.5.5,0,0,0-.27-.17Z"/></svg>